<svg width="256" height="256" viewBox="0 0 256 256" fill="none" xmlns="http://www.w3.org/2000/svg">
<g clip-path="url(#clip0_2_15270)">
<path d="M201.731 255.654H53.5857C24.0701 255.654 0.230591 231.814 0.230591 202.299V53.5856C0.230591 24.07 24.0701 0.230469 53.5857 0.230469H201.731C231.247 0.230469 255.087 24.07 255.087 53.5856V202.299C255.087 231.814 231.247 255.654 201.731 255.654Z" fill="#F47721"/>
<path d="M202.299 71.7495C204.569 70.0467 207.408 68.3439 209.678 66.6411C208.543 62.6678 206.272 59.2622 204.002 55.8565C201.164 56.9917 198.893 58.6946 196.055 59.8298C194.353 58.6946 192.65 56.9917 190.379 55.8565C190.947 53.0185 191.514 49.6128 192.082 46.7748C188.109 45.6396 184.136 43.9367 180.162 43.3691C179.027 46.2072 178.459 49.0452 177.324 51.8833C175.054 51.8833 172.783 52.4509 171.081 53.0185C169.378 50.748 167.675 47.91 165.972 45.6396C161.999 46.7748 158.593 49.0452 155.188 51.8833C156.323 54.7213 157.458 57.5593 159.161 60.3974C157.458 62.1002 156.323 63.803 155.188 65.5058C152.35 64.9382 148.944 64.3706 146.106 63.803C144.971 67.7763 143.835 71.7495 142.7 75.7228C145.538 76.858 148.376 77.9932 151.214 78.5608C151.214 80.8313 151.782 83.1017 151.782 85.3721C149.511 87.0749 146.673 88.7778 144.403 90.4806C145.538 94.4538 147.809 97.8595 150.647 101.265C153.485 100.13 156.323 98.4271 159.161 97.2919C160.864 98.9947 162.566 100.13 164.269 101.265C163.702 104.103 163.134 107.509 162.566 110.347C166.54 112.05 170.513 112.617 174.486 113.185C175.054 110.347 176.189 107.509 177.324 104.671C179.595 104.671 181.865 104.103 184.136 104.103C185.838 106.374 187.541 109.212 189.244 111.482C193.217 109.779 196.623 108.076 199.461 105.238C198.326 102.4 196.623 99.5623 195.488 96.7243C196.623 95.0215 198.326 93.3186 199.461 91.6158C202.299 92.1834 205.705 92.751 208.543 93.3186C209.678 89.3454 211.381 85.3721 211.948 81.3989C209.11 80.8313 206.272 79.696 203.434 78.5608C203.434 76.2904 202.867 74.02 202.299 71.7495ZM189.812 79.696C189.812 87.0749 181.865 92.1834 175.054 89.913C168.81 88.2102 164.837 80.8313 167.107 74.5876C168.243 70.6143 171.648 68.3439 175.054 67.2087C182.433 64.9382 190.379 71.7495 189.812 79.696Z" fill="white"/>
<path d="M177.324 95.5887C186.729 95.5887 194.352 87.9649 194.352 78.5605C194.352 69.156 186.729 61.5322 177.324 61.5322C167.92 61.5322 160.296 69.156 160.296 78.5605C160.296 87.9649 167.92 95.5887 177.324 95.5887Z" fill="#F36D21"/>
<path d="M127.375 193.217C140.997 192.649 150.079 202.299 160.864 207.975C176.757 216.489 192.082 214.786 204.002 200.596C209.678 193.784 212.516 186.973 212.516 179.594C212.516 172.783 209.678 165.404 204.569 159.16C192.65 144.403 177.324 144.403 161.431 152.349C155.755 155.187 150.647 159.728 144.403 162.566C129.645 169.377 115.455 168.81 102.4 156.89C89.345 144.403 84.8041 130.212 92.7507 113.752C95.5887 108.076 99.562 102.4 102.4 96.7235C111.482 80.2629 113.185 63.8023 97.8591 50.7473C91.6154 45.0712 84.2365 42.8008 77.4252 42.8008C70.6139 42.8008 63.2351 45.6388 56.4238 50.7473C40.5307 63.2347 38.8279 80.8305 49.6125 96.1559C65.5055 118.293 67.2083 138.159 50.1801 160.296C39.3955 174.486 39.3955 190.946 53.0181 204.001C59.8294 210.813 67.2083 213.651 74.5872 213.651C81.9661 213.651 89.9126 210.813 97.2915 206.272C106.941 200.028 115.455 192.082 127.375 193.217Z" fill="white"/>
</g>
<defs>
<clipPath id="clip0_2_15270">
<rect width="256" height="256" fill="white"/>
</clipPath>
</defs>
</svg>
