<svg width="59" height="59" viewBox="0 0 59 59" fill="none" xmlns="http://www.w3.org/2000/svg">
<rect x="12.4688" width="48.1733" height="48.1733" rx="10" transform="rotate(15 12.4688 0)" fill="#FBC75E"/>
<g clip-path="url(#clip0_42_1654)">
<path d="M31.8761 34.6007L31.4483 36.1973L20.2718 33.2026L20.6996 31.6059C20.6996 31.6059 21.5553 28.4126 27.1435 29.91C32.7318 31.4074 31.8761 34.6007 31.8761 34.6007ZM31.1142 26.2679C31.2622 25.7153 31.2431 25.1312 31.0592 24.5894C30.8753 24.0477 30.5349 23.5726 30.081 23.2243C29.6271 22.876 29.0801 22.6702 28.5092 22.6327C27.9383 22.5953 27.3692 22.728 26.8737 23.0141C26.3782 23.3002 25.9787 23.7267 25.7256 24.2398C25.4726 24.753 25.3774 25.3296 25.4521 25.8968C25.5268 26.464 25.768 26.9964 26.1452 27.4265C26.5224 27.8567 27.0187 28.1653 27.5713 28.3134C28.3124 28.5119 29.102 28.408 29.7664 28.0244C30.4308 27.6408 30.9156 27.009 31.1142 26.2679ZM32.6839 31.3945C33.0729 31.9058 33.3451 32.4962 33.4814 33.124C33.6177 33.7518 33.6148 34.4019 33.4728 35.0285L33.045 36.6251L36.2383 37.4808L36.6661 35.8841C36.6661 35.8841 37.4426 32.9862 32.6839 31.3945ZM33.8586 24.0086C33.31 23.8583 32.7285 23.8786 32.1917 24.0667C32.4951 24.8742 32.5381 25.7564 32.3149 26.5897C32.0916 27.4229 31.6132 28.1653 30.9467 28.713C31.3176 29.1444 31.811 29.4526 32.3613 29.5968C33.1023 29.7954 33.8919 29.6914 34.5563 29.3078C35.2207 28.9242 35.7055 28.2924 35.9041 27.5514C36.1026 26.8103 35.9987 26.0208 35.6151 25.3564C35.2315 24.6919 34.5997 24.2071 33.8586 24.0086Z" fill="#FBFBFB"/>
</g>
<defs>
<clipPath id="clip0_42_1654">
<rect width="19.8356" height="19.8356" fill="white" transform="translate(22.7402 17.6066) rotate(15)"/>
</clipPath>
</defs>
</svg>
