<svg width="20" height="20" fill="none" xmlns="http://www.w3.org/2000/svg">
  <g clip-path="url(#a)" stroke="#121417" stroke-width="2" stroke-linecap="round" stroke-linejoin="round">
    <path d="M14.95 14.95A8.391 8.391 0 0 1 10 16.667C4.167 16.667.833 10 .833 10A15.375 15.375 0 0 1 5.05 5.05m3.2-1.517a7.6 7.6 0 0 1 1.75-.2c5.833 0 9.167 6.667 9.167 6.667a15.42 15.42 0 0 1-1.8 2.658m-5.6-.891a2.501 2.501 0 0 1-4.329-1.749 2.5 2.5 0 0 1 .795-1.785M.833.833l18.334 18.334"/>
  </g>
  <defs>
    <clipPath id="a">
      <path fill="#fff" d="M0 0h20v20H0z"/>
    </clipPath>
  </defs>
</svg>
